<mxfile host="app.diagrams.net" modified="2023-09-02T14:16:53.218Z" agent="Mozilla/5.0 (Windows NT 10.0; Win64; x64) AppleWebKit/537.36 (KHTML, like Gecko) Chrome/115.0.0.0 Safari/537.36 Edg/115.0.1901.203" etag="KyT2tSFmtdbcpQYEu35L" version="21.7.2" type="github">
  <diagram name="第 1 页" id="r8BKlPBKaMjwu3QvP3Yw">
    <mxGraphModel dx="1779" dy="756" grid="0" gridSize="10" guides="1" tooltips="1" connect="1" arrows="1" fold="1" page="0" pageScale="1" pageWidth="827" pageHeight="1169" math="0" shadow="0">
      <root>
        <mxCell id="0" />
        <mxCell id="1" parent="0" />
        <mxCell id="pQg7jKlTXWdwniI-N2uA-41" style="edgeStyle=orthogonalEdgeStyle;rounded=0;orthogonalLoop=1;jettySize=auto;html=1;exitX=1;exitY=0.5;exitDx=0;exitDy=0;exitPerimeter=0;entryX=0;entryY=0.5;entryDx=0;entryDy=0;" edge="1" parent="1" source="pQg7jKlTXWdwniI-N2uA-1" target="pQg7jKlTXWdwniI-N2uA-12">
          <mxGeometry relative="1" as="geometry" />
        </mxCell>
        <mxCell id="pQg7jKlTXWdwniI-N2uA-1" value="变更请求" style="strokeWidth=2;html=1;shape=mxgraph.flowchart.terminator;whiteSpace=wrap;fillColor=#d5e8d4;strokeColor=#82b366;" vertex="1" parent="1">
          <mxGeometry x="1" y="260" width="78" height="38" as="geometry" />
        </mxCell>
        <mxCell id="pQg7jKlTXWdwniI-N2uA-42" style="edgeStyle=orthogonalEdgeStyle;rounded=0;orthogonalLoop=1;jettySize=auto;html=1;exitX=1;exitY=0.5;exitDx=0;exitDy=0;entryX=0;entryY=0.5;entryDx=0;entryDy=0;" edge="1" parent="1" source="pQg7jKlTXWdwniI-N2uA-12" target="pQg7jKlTXWdwniI-N2uA-13">
          <mxGeometry relative="1" as="geometry" />
        </mxCell>
        <mxCell id="pQg7jKlTXWdwniI-N2uA-12" value="&lt;p style=&quot;margin:0px;margin-top:4px;text-align:center;&quot;&gt;&lt;b&gt;变更管理员&lt;/b&gt;&lt;/p&gt;&lt;hr size=&quot;1&quot;&gt;&lt;div style=&quot;text-align: center; height: 2px;&quot;&gt;请求过滤&lt;/div&gt;" style="verticalAlign=top;align=left;overflow=fill;fontSize=12;fontFamily=Helvetica;html=1;whiteSpace=wrap;fillColor=#dae8fc;strokeColor=#6c8ebf;" vertex="1" parent="1">
          <mxGeometry x="206" y="249" width="140" height="60" as="geometry" />
        </mxCell>
        <mxCell id="pQg7jKlTXWdwniI-N2uA-43" style="edgeStyle=orthogonalEdgeStyle;rounded=0;orthogonalLoop=1;jettySize=auto;html=1;exitX=1;exitY=0.5;exitDx=0;exitDy=0;entryX=0;entryY=0.5;entryDx=0;entryDy=0;" edge="1" parent="1" source="pQg7jKlTXWdwniI-N2uA-13" target="pQg7jKlTXWdwniI-N2uA-14">
          <mxGeometry relative="1" as="geometry" />
        </mxCell>
        <mxCell id="pQg7jKlTXWdwniI-N2uA-13" value="&lt;p style=&quot;margin:0px;margin-top:4px;text-align:center;&quot;&gt;&lt;b&gt;变更管理员&lt;/b&gt;&lt;/p&gt;&lt;hr size=&quot;1&quot;&gt;&lt;div style=&quot;text-align: center; height: 2px;&quot;&gt;变更分类&lt;/div&gt;" style="verticalAlign=top;align=left;overflow=fill;fontSize=12;fontFamily=Helvetica;html=1;whiteSpace=wrap;fillColor=#dae8fc;strokeColor=#6c8ebf;" vertex="1" parent="1">
          <mxGeometry x="451" y="249" width="140" height="60" as="geometry" />
        </mxCell>
        <mxCell id="pQg7jKlTXWdwniI-N2uA-16" value="" style="edgeStyle=orthogonalEdgeStyle;rounded=0;orthogonalLoop=1;jettySize=auto;html=1;" edge="1" parent="1" source="pQg7jKlTXWdwniI-N2uA-14" target="pQg7jKlTXWdwniI-N2uA-15">
          <mxGeometry relative="1" as="geometry" />
        </mxCell>
        <mxCell id="pQg7jKlTXWdwniI-N2uA-40" value="P3" style="edgeLabel;html=1;align=center;verticalAlign=middle;resizable=0;points=[];" vertex="1" connectable="0" parent="pQg7jKlTXWdwniI-N2uA-16">
          <mxGeometry x="0.35" relative="1" as="geometry">
            <mxPoint x="-1" y="1" as="offset" />
          </mxGeometry>
        </mxCell>
        <mxCell id="pQg7jKlTXWdwniI-N2uA-21" style="edgeStyle=orthogonalEdgeStyle;rounded=0;orthogonalLoop=1;jettySize=auto;html=1;entryX=0.5;entryY=0;entryDx=0;entryDy=0;" edge="1" parent="1" source="pQg7jKlTXWdwniI-N2uA-14" target="pQg7jKlTXWdwniI-N2uA-19">
          <mxGeometry relative="1" as="geometry">
            <Array as="points">
              <mxPoint x="752" y="346" />
              <mxPoint x="574" y="346" />
              <mxPoint x="574" y="386" />
            </Array>
          </mxGeometry>
        </mxCell>
        <mxCell id="pQg7jKlTXWdwniI-N2uA-39" value="P2" style="edgeLabel;html=1;align=center;verticalAlign=middle;resizable=0;points=[];" vertex="1" connectable="0" parent="pQg7jKlTXWdwniI-N2uA-21">
          <mxGeometry x="0.8571" relative="1" as="geometry">
            <mxPoint y="-7" as="offset" />
          </mxGeometry>
        </mxCell>
        <mxCell id="pQg7jKlTXWdwniI-N2uA-22" style="edgeStyle=orthogonalEdgeStyle;rounded=0;orthogonalLoop=1;jettySize=auto;html=1;entryX=0.5;entryY=0;entryDx=0;entryDy=0;" edge="1" parent="1" source="pQg7jKlTXWdwniI-N2uA-14" target="pQg7jKlTXWdwniI-N2uA-20">
          <mxGeometry relative="1" as="geometry">
            <Array as="points">
              <mxPoint x="752" y="346" />
              <mxPoint x="216" y="346" />
            </Array>
          </mxGeometry>
        </mxCell>
        <mxCell id="pQg7jKlTXWdwniI-N2uA-33" value="P0" style="edgeLabel;html=1;align=center;verticalAlign=middle;resizable=0;points=[];" vertex="1" connectable="0" parent="pQg7jKlTXWdwniI-N2uA-22">
          <mxGeometry x="0.894" relative="1" as="geometry">
            <mxPoint y="4" as="offset" />
          </mxGeometry>
        </mxCell>
        <mxCell id="pQg7jKlTXWdwniI-N2uA-52" style="edgeStyle=orthogonalEdgeStyle;rounded=0;orthogonalLoop=1;jettySize=auto;html=1;exitX=0.5;exitY=1;exitDx=0;exitDy=0;entryX=0.5;entryY=0;entryDx=0;entryDy=0;" edge="1" parent="1">
          <mxGeometry relative="1" as="geometry">
            <mxPoint x="752" y="308" as="sourcePoint" />
            <mxPoint x="391" y="394" as="targetPoint" />
            <Array as="points">
              <mxPoint x="752" y="346" />
              <mxPoint x="391" y="346" />
            </Array>
          </mxGeometry>
        </mxCell>
        <mxCell id="pQg7jKlTXWdwniI-N2uA-53" value="P1" style="edgeLabel;html=1;align=center;verticalAlign=middle;resizable=0;points=[];" vertex="1" connectable="0" parent="pQg7jKlTXWdwniI-N2uA-52">
          <mxGeometry x="0.877" y="-1" relative="1" as="geometry">
            <mxPoint as="offset" />
          </mxGeometry>
        </mxCell>
        <mxCell id="pQg7jKlTXWdwniI-N2uA-14" value="&lt;p style=&quot;margin:0px;margin-top:4px;text-align:center;&quot;&gt;&lt;b&gt;变更管理员&lt;/b&gt;&lt;/p&gt;&lt;hr size=&quot;1&quot;&gt;&lt;div style=&quot;text-align: center; height: 2px;&quot;&gt;确认变更级别&lt;/div&gt;" style="verticalAlign=top;align=left;overflow=fill;fontSize=12;fontFamily=Helvetica;html=1;whiteSpace=wrap;fillColor=#dae8fc;strokeColor=#6c8ebf;" vertex="1" parent="1">
          <mxGeometry x="682" y="249" width="140" height="60" as="geometry" />
        </mxCell>
        <mxCell id="pQg7jKlTXWdwniI-N2uA-51" style="edgeStyle=orthogonalEdgeStyle;rounded=0;orthogonalLoop=1;jettySize=auto;html=1;exitX=0.5;exitY=1;exitDx=0;exitDy=0;entryX=0.5;entryY=0;entryDx=0;entryDy=0;" edge="1" parent="1" source="pQg7jKlTXWdwniI-N2uA-15" target="pQg7jKlTXWdwniI-N2uA-50">
          <mxGeometry relative="1" as="geometry" />
        </mxCell>
        <mxCell id="pQg7jKlTXWdwniI-N2uA-15" value="&lt;p style=&quot;margin:0px;margin-top:4px;text-align:center;&quot;&gt;&lt;b&gt;变更管理员&lt;/b&gt;&lt;/p&gt;&lt;hr size=&quot;1&quot;&gt;&lt;div style=&quot;text-align: center; height: 2px;&quot;&gt;提交变更请求运维经理及主管&lt;br&gt;&lt;/div&gt;" style="verticalAlign=top;align=left;overflow=fill;fontSize=12;fontFamily=Helvetica;html=1;whiteSpace=wrap;fillColor=#dae8fc;strokeColor=#6c8ebf;" vertex="1" parent="1">
          <mxGeometry x="682" y="395" width="140" height="60" as="geometry" />
        </mxCell>
        <mxCell id="pQg7jKlTXWdwniI-N2uA-24" value="" style="edgeStyle=orthogonalEdgeStyle;rounded=0;orthogonalLoop=1;jettySize=auto;html=1;" edge="1" parent="1" source="pQg7jKlTXWdwniI-N2uA-17" target="pQg7jKlTXWdwniI-N2uA-23">
          <mxGeometry relative="1" as="geometry" />
        </mxCell>
        <mxCell id="pQg7jKlTXWdwniI-N2uA-17" value="&lt;p style=&quot;margin:0px;margin-top:4px;text-align:center;&quot;&gt;&lt;b&gt;变更执行小组&lt;/b&gt;&lt;/p&gt;&lt;hr size=&quot;1&quot;&gt;&lt;div style=&quot;text-align: center; height: 2px;&quot;&gt;构建、测试计划和回滚计划&lt;/div&gt;" style="verticalAlign=top;align=left;overflow=fill;fontSize=12;fontFamily=Helvetica;html=1;whiteSpace=wrap;fillColor=#dae8fc;strokeColor=#6c8ebf;" vertex="1" parent="1">
          <mxGeometry x="682" y="627" width="140" height="60" as="geometry" />
        </mxCell>
        <mxCell id="pQg7jKlTXWdwniI-N2uA-49" value="" style="edgeStyle=orthogonalEdgeStyle;rounded=0;orthogonalLoop=1;jettySize=auto;html=1;" edge="1" parent="1" source="pQg7jKlTXWdwniI-N2uA-19" target="pQg7jKlTXWdwniI-N2uA-48">
          <mxGeometry relative="1" as="geometry" />
        </mxCell>
        <mxCell id="pQg7jKlTXWdwniI-N2uA-19" value="&lt;p style=&quot;margin:0px;margin-top:4px;text-align:center;&quot;&gt;&lt;b&gt;变更管理员&lt;/b&gt;&lt;/p&gt;&lt;hr size=&quot;1&quot;&gt;&lt;div style=&quot;text-align: center; height: 2px;&quot;&gt;提交变更请求运维经理及主管&lt;/div&gt;" style="verticalAlign=top;align=left;overflow=fill;fontSize=12;fontFamily=Helvetica;html=1;whiteSpace=wrap;fillColor=#dae8fc;strokeColor=#6c8ebf;" vertex="1" parent="1">
          <mxGeometry x="504" y="395" width="140" height="60" as="geometry" />
        </mxCell>
        <mxCell id="pQg7jKlTXWdwniI-N2uA-45" value="" style="edgeStyle=orthogonalEdgeStyle;rounded=0;orthogonalLoop=1;jettySize=auto;html=1;" edge="1" parent="1" source="pQg7jKlTXWdwniI-N2uA-20" target="pQg7jKlTXWdwniI-N2uA-44">
          <mxGeometry relative="1" as="geometry" />
        </mxCell>
        <mxCell id="pQg7jKlTXWdwniI-N2uA-20" value="&lt;p style=&quot;margin:0px;margin-top:4px;text-align:center;&quot;&gt;&lt;b&gt;变更管理员&lt;/b&gt;&lt;/p&gt;&lt;hr size=&quot;1&quot;&gt;&lt;div style=&quot;text-align: center; height: 2px;&quot;&gt;提交变更请求至变更委员会成员&lt;/div&gt;" style="verticalAlign=top;align=left;overflow=fill;fontSize=12;fontFamily=Helvetica;html=1;whiteSpace=wrap;fillColor=#dae8fc;strokeColor=#6c8ebf;" vertex="1" parent="1">
          <mxGeometry x="146" y="396" width="140" height="60" as="geometry" />
        </mxCell>
        <mxCell id="pQg7jKlTXWdwniI-N2uA-55" style="edgeStyle=orthogonalEdgeStyle;rounded=0;orthogonalLoop=1;jettySize=auto;html=1;exitX=0;exitY=0.5;exitDx=0;exitDy=0;entryX=1;entryY=0.5;entryDx=0;entryDy=0;" edge="1" parent="1" source="pQg7jKlTXWdwniI-N2uA-23" target="pQg7jKlTXWdwniI-N2uA-25">
          <mxGeometry relative="1" as="geometry" />
        </mxCell>
        <mxCell id="pQg7jKlTXWdwniI-N2uA-23" value="&lt;p style=&quot;margin:0px;margin-top:4px;text-align:center;&quot;&gt;&lt;b&gt;测试人员&lt;/b&gt;&lt;/p&gt;&lt;hr size=&quot;1&quot;&gt;&lt;div style=&quot;text-align: center; height: 2px;&quot;&gt;测试变更&lt;/div&gt;" style="verticalAlign=top;align=left;overflow=fill;fontSize=12;fontFamily=Helvetica;html=1;whiteSpace=wrap;fillColor=#dae8fc;strokeColor=#6c8ebf;" vertex="1" parent="1">
          <mxGeometry x="682" y="730" width="140" height="60" as="geometry" />
        </mxCell>
        <mxCell id="pQg7jKlTXWdwniI-N2uA-28" value="" style="edgeStyle=orthogonalEdgeStyle;rounded=0;orthogonalLoop=1;jettySize=auto;html=1;" edge="1" parent="1" source="pQg7jKlTXWdwniI-N2uA-25" target="pQg7jKlTXWdwniI-N2uA-27">
          <mxGeometry relative="1" as="geometry" />
        </mxCell>
        <mxCell id="pQg7jKlTXWdwniI-N2uA-25" value="&lt;p style=&quot;margin:0px;margin-top:4px;text-align:center;&quot;&gt;&lt;b&gt;变更管理员&lt;/b&gt;&lt;/p&gt;&lt;hr size=&quot;1&quot;&gt;&lt;div style=&quot;text-align: center; height: 2px;&quot;&gt;测试变更&lt;/div&gt;" style="verticalAlign=top;align=left;overflow=fill;fontSize=12;fontFamily=Helvetica;html=1;whiteSpace=wrap;fillColor=#dae8fc;strokeColor=#6c8ebf;" vertex="1" parent="1">
          <mxGeometry x="505" y="730" width="140" height="60" as="geometry" />
        </mxCell>
        <mxCell id="pQg7jKlTXWdwniI-N2uA-32" style="edgeStyle=orthogonalEdgeStyle;rounded=0;orthogonalLoop=1;jettySize=auto;html=1;exitX=0;exitY=0.5;exitDx=0;exitDy=0;entryX=1;entryY=0.5;entryDx=0;entryDy=0;entryPerimeter=0;" edge="1" parent="1" source="pQg7jKlTXWdwniI-N2uA-27" target="pQg7jKlTXWdwniI-N2uA-31">
          <mxGeometry relative="1" as="geometry" />
        </mxCell>
        <mxCell id="pQg7jKlTXWdwniI-N2uA-27" value="&lt;p style=&quot;margin:0px;margin-top:4px;text-align:center;&quot;&gt;&lt;b&gt;变更管理员&lt;/b&gt;&lt;/p&gt;&lt;hr size=&quot;1&quot;&gt;&lt;div style=&quot;text-align: center; height: 2px;&quot;&gt;变更回顾&lt;/div&gt;" style="verticalAlign=top;align=left;overflow=fill;fontSize=12;fontFamily=Helvetica;html=1;whiteSpace=wrap;fillColor=#dae8fc;strokeColor=#6c8ebf;" vertex="1" parent="1">
          <mxGeometry x="325" y="730" width="140" height="60" as="geometry" />
        </mxCell>
        <mxCell id="pQg7jKlTXWdwniI-N2uA-31" value="关闭" style="strokeWidth=2;html=1;shape=mxgraph.flowchart.terminator;whiteSpace=wrap;fillColor=#f8cecc;strokeColor=#b85450;" vertex="1" parent="1">
          <mxGeometry x="6" y="741" width="77" height="37" as="geometry" />
        </mxCell>
        <mxCell id="pQg7jKlTXWdwniI-N2uA-47" style="edgeStyle=orthogonalEdgeStyle;rounded=0;orthogonalLoop=1;jettySize=auto;html=1;exitX=0.5;exitY=1;exitDx=0;exitDy=0;entryX=0.5;entryY=0;entryDx=0;entryDy=0;" edge="1" parent="1" source="pQg7jKlTXWdwniI-N2uA-35" target="pQg7jKlTXWdwniI-N2uA-46">
          <mxGeometry relative="1" as="geometry" />
        </mxCell>
        <mxCell id="pQg7jKlTXWdwniI-N2uA-35" value="&lt;p style=&quot;margin:0px;margin-top:4px;text-align:center;&quot;&gt;&lt;b&gt;变更管理员&lt;/b&gt;&lt;/p&gt;&lt;hr size=&quot;1&quot;&gt;&lt;div style=&quot;text-align: center; height: 2px;&quot;&gt;提交变更请求至变更委员会成员&lt;/div&gt;" style="verticalAlign=top;align=left;overflow=fill;fontSize=12;fontFamily=Helvetica;html=1;whiteSpace=wrap;fillColor=#dae8fc;strokeColor=#6c8ebf;" vertex="1" parent="1">
          <mxGeometry x="321" y="395" width="140" height="60" as="geometry" />
        </mxCell>
        <mxCell id="pQg7jKlTXWdwniI-N2uA-58" style="edgeStyle=orthogonalEdgeStyle;rounded=0;orthogonalLoop=1;jettySize=auto;html=1;exitX=0.5;exitY=1;exitDx=0;exitDy=0;entryX=0;entryY=0.5;entryDx=0;entryDy=0;" edge="1" parent="1" source="pQg7jKlTXWdwniI-N2uA-44" target="pQg7jKlTXWdwniI-N2uA-17">
          <mxGeometry relative="1" as="geometry" />
        </mxCell>
        <mxCell id="pQg7jKlTXWdwniI-N2uA-44" value="&lt;p style=&quot;margin:0px;margin-top:4px;text-align:center;&quot;&gt;&lt;b&gt;变更委员会&lt;br&gt;&lt;/b&gt;&lt;/p&gt;&lt;hr size=&quot;1&quot;&gt;&lt;div style=&quot;text-align: center; height: 2px;&quot;&gt;从业务和技术角度接受或拒绝变更&lt;/div&gt;" style="verticalAlign=top;align=left;overflow=fill;fontSize=12;fontFamily=Helvetica;html=1;whiteSpace=wrap;fillColor=#dae8fc;strokeColor=#6c8ebf;" vertex="1" parent="1">
          <mxGeometry x="146" y="513" width="140" height="60" as="geometry" />
        </mxCell>
        <mxCell id="pQg7jKlTXWdwniI-N2uA-57" style="edgeStyle=orthogonalEdgeStyle;rounded=0;orthogonalLoop=1;jettySize=auto;html=1;exitX=0.5;exitY=1;exitDx=0;exitDy=0;entryX=0;entryY=0.5;entryDx=0;entryDy=0;" edge="1" parent="1" source="pQg7jKlTXWdwniI-N2uA-46" target="pQg7jKlTXWdwniI-N2uA-17">
          <mxGeometry relative="1" as="geometry" />
        </mxCell>
        <mxCell id="pQg7jKlTXWdwniI-N2uA-46" value="&lt;p style=&quot;margin:0px;margin-top:4px;text-align:center;&quot;&gt;&lt;b&gt;变更委员会&lt;/b&gt;&lt;br&gt;&lt;/p&gt;&lt;hr size=&quot;1&quot;&gt;&lt;div style=&quot;text-align: center; height: 2px;&quot;&gt;从业务和技术角度接受或拒绝变更&lt;br&gt;&lt;/div&gt;" style="verticalAlign=top;align=left;overflow=fill;fontSize=12;fontFamily=Helvetica;html=1;whiteSpace=wrap;fillColor=#dae8fc;strokeColor=#6c8ebf;" vertex="1" parent="1">
          <mxGeometry x="321" y="514" width="140" height="60" as="geometry" />
        </mxCell>
        <mxCell id="pQg7jKlTXWdwniI-N2uA-56" style="edgeStyle=orthogonalEdgeStyle;rounded=0;orthogonalLoop=1;jettySize=auto;html=1;exitX=0.5;exitY=1;exitDx=0;exitDy=0;entryX=0;entryY=0.5;entryDx=0;entryDy=0;" edge="1" parent="1" source="pQg7jKlTXWdwniI-N2uA-48" target="pQg7jKlTXWdwniI-N2uA-17">
          <mxGeometry relative="1" as="geometry" />
        </mxCell>
        <mxCell id="pQg7jKlTXWdwniI-N2uA-48" value="&lt;p style=&quot;margin:0px;margin-top:4px;text-align:center;&quot;&gt;&lt;b&gt;运维经理及主管&lt;br&gt;&lt;/b&gt;&lt;/p&gt;&lt;hr size=&quot;1&quot;&gt;&lt;div style=&quot;text-align: center; height: 2px;&quot;&gt;从业务和技术角度接受或拒绝变更&lt;br&gt;&lt;/div&gt;" style="verticalAlign=top;align=left;overflow=fill;fontSize=12;fontFamily=Helvetica;html=1;whiteSpace=wrap;fillColor=#dae8fc;strokeColor=#6c8ebf;" vertex="1" parent="1">
          <mxGeometry x="504" y="513" width="140" height="60" as="geometry" />
        </mxCell>
        <mxCell id="pQg7jKlTXWdwniI-N2uA-54" style="edgeStyle=orthogonalEdgeStyle;rounded=0;orthogonalLoop=1;jettySize=auto;html=1;exitX=0.5;exitY=1;exitDx=0;exitDy=0;entryX=0.5;entryY=0;entryDx=0;entryDy=0;" edge="1" parent="1" source="pQg7jKlTXWdwniI-N2uA-50" target="pQg7jKlTXWdwniI-N2uA-17">
          <mxGeometry relative="1" as="geometry" />
        </mxCell>
        <mxCell id="pQg7jKlTXWdwniI-N2uA-50" value="&lt;p style=&quot;margin:0px;margin-top:4px;text-align:center;&quot;&gt;&lt;b&gt;运维经理及主管&lt;br&gt;&lt;/b&gt;&lt;/p&gt;&lt;hr size=&quot;1&quot;&gt;&lt;div style=&quot;text-align: center; height: 2px;&quot;&gt;从业务和技术角度接受或拒绝变更&lt;br&gt;&lt;/div&gt;" style="verticalAlign=top;align=left;overflow=fill;fontSize=12;fontFamily=Helvetica;html=1;whiteSpace=wrap;fillColor=#dae8fc;strokeColor=#6c8ebf;" vertex="1" parent="1">
          <mxGeometry x="682" y="513" width="140" height="60" as="geometry" />
        </mxCell>
        <mxCell id="pQg7jKlTXWdwniI-N2uA-59" style="edgeStyle=orthogonalEdgeStyle;rounded=0;orthogonalLoop=1;jettySize=auto;html=1;exitX=1;exitY=0.5;exitDx=0;exitDy=0;exitPerimeter=0;entryX=0;entryY=0.5;entryDx=0;entryDy=0;" edge="1" parent="1" source="pQg7jKlTXWdwniI-N2uA-60" target="pQg7jKlTXWdwniI-N2uA-62">
          <mxGeometry relative="1" as="geometry" />
        </mxCell>
        <mxCell id="pQg7jKlTXWdwniI-N2uA-60" value="变更请求" style="strokeWidth=2;html=1;shape=mxgraph.flowchart.terminator;whiteSpace=wrap;fillColor=#d5e8d4;strokeColor=#82b366;" vertex="1" parent="1">
          <mxGeometry x="-5" y="903" width="78" height="38" as="geometry" />
        </mxCell>
        <mxCell id="pQg7jKlTXWdwniI-N2uA-61" style="edgeStyle=orthogonalEdgeStyle;rounded=0;orthogonalLoop=1;jettySize=auto;html=1;exitX=1;exitY=0.5;exitDx=0;exitDy=0;entryX=0;entryY=0.5;entryDx=0;entryDy=0;" edge="1" parent="1" source="pQg7jKlTXWdwniI-N2uA-62" target="pQg7jKlTXWdwniI-N2uA-64">
          <mxGeometry relative="1" as="geometry" />
        </mxCell>
        <mxCell id="pQg7jKlTXWdwniI-N2uA-62" value="&lt;p style=&quot;margin:0px;margin-top:4px;text-align:center;&quot;&gt;&lt;b&gt;变更管理员&lt;/b&gt;&lt;/p&gt;&lt;hr size=&quot;1&quot;&gt;&lt;div style=&quot;text-align: center; height: 2px;&quot;&gt;请求过滤&lt;/div&gt;" style="verticalAlign=top;align=left;overflow=fill;fontSize=12;fontFamily=Helvetica;html=1;whiteSpace=wrap;fillColor=#dae8fc;strokeColor=#6c8ebf;" vertex="1" parent="1">
          <mxGeometry x="200" y="892" width="140" height="60" as="geometry" />
        </mxCell>
        <mxCell id="pQg7jKlTXWdwniI-N2uA-63" style="edgeStyle=orthogonalEdgeStyle;rounded=0;orthogonalLoop=1;jettySize=auto;html=1;exitX=1;exitY=0.5;exitDx=0;exitDy=0;entryX=0;entryY=0.5;entryDx=0;entryDy=0;" edge="1" parent="1" source="pQg7jKlTXWdwniI-N2uA-64" target="pQg7jKlTXWdwniI-N2uA-73">
          <mxGeometry relative="1" as="geometry" />
        </mxCell>
        <mxCell id="pQg7jKlTXWdwniI-N2uA-64" value="&lt;p style=&quot;margin:0px;margin-top:4px;text-align:center;&quot;&gt;&lt;b&gt;变更管理员&lt;/b&gt;&lt;/p&gt;&lt;hr size=&quot;1&quot;&gt;&lt;div style=&quot;text-align: center; height: 2px;&quot;&gt;变更分类并初始化级别&lt;/div&gt;" style="verticalAlign=top;align=left;overflow=fill;fontSize=12;fontFamily=Helvetica;html=1;whiteSpace=wrap;fillColor=#dae8fc;strokeColor=#6c8ebf;" vertex="1" parent="1">
          <mxGeometry x="445" y="892" width="140" height="60" as="geometry" />
        </mxCell>
        <mxCell id="pQg7jKlTXWdwniI-N2uA-65" value="" style="edgeStyle=orthogonalEdgeStyle;rounded=0;orthogonalLoop=1;jettySize=auto;html=1;" edge="1" parent="1" source="pQg7jKlTXWdwniI-N2uA-73" target="pQg7jKlTXWdwniI-N2uA-75">
          <mxGeometry relative="1" as="geometry" />
        </mxCell>
        <mxCell id="pQg7jKlTXWdwniI-N2uA-73" value="&lt;p style=&quot;margin:0px;margin-top:4px;text-align:center;&quot;&gt;&lt;b&gt;变更管理员&lt;/b&gt;&lt;/p&gt;&lt;hr size=&quot;1&quot;&gt;&lt;div style=&quot;text-align: center; height: 2px;&quot;&gt;通知变更委员会召开紧急变更会议&lt;/div&gt;" style="verticalAlign=top;align=left;overflow=fill;fontSize=12;fontFamily=Helvetica;html=1;whiteSpace=wrap;fillColor=#dae8fc;strokeColor=#6c8ebf;" vertex="1" parent="1">
          <mxGeometry x="676" y="892" width="140" height="60" as="geometry" />
        </mxCell>
        <mxCell id="pQg7jKlTXWdwniI-N2uA-103" style="edgeStyle=orthogonalEdgeStyle;rounded=0;orthogonalLoop=1;jettySize=auto;html=1;exitX=0;exitY=0.5;exitDx=0;exitDy=0;entryX=1;entryY=0.5;entryDx=0;entryDy=0;" edge="1" parent="1" source="pQg7jKlTXWdwniI-N2uA-75" target="pQg7jKlTXWdwniI-N2uA-79">
          <mxGeometry relative="1" as="geometry" />
        </mxCell>
        <mxCell id="pQg7jKlTXWdwniI-N2uA-75" value="&lt;p style=&quot;margin:0px;margin-top:4px;text-align:center;&quot;&gt;&lt;b&gt;（紧急）变更委员会&lt;/b&gt;&lt;/p&gt;&lt;hr size=&quot;1&quot;&gt;&lt;div style=&quot;text-align: center; height: 2px;&quot;&gt;快速评估影响和优先级&lt;/div&gt;" style="verticalAlign=top;align=left;overflow=fill;fontSize=12;fontFamily=Helvetica;html=1;whiteSpace=wrap;fillColor=#dae8fc;strokeColor=#6c8ebf;" vertex="1" parent="1">
          <mxGeometry x="676" y="1038" width="140" height="60" as="geometry" />
        </mxCell>
        <mxCell id="pQg7jKlTXWdwniI-N2uA-104" style="edgeStyle=orthogonalEdgeStyle;rounded=0;orthogonalLoop=1;jettySize=auto;html=1;exitX=0;exitY=0.5;exitDx=0;exitDy=0;entryX=1;entryY=0.5;entryDx=0;entryDy=0;" edge="1" parent="1" source="pQg7jKlTXWdwniI-N2uA-79" target="pQg7jKlTXWdwniI-N2uA-99">
          <mxGeometry relative="1" as="geometry" />
        </mxCell>
        <mxCell id="pQg7jKlTXWdwniI-N2uA-79" value="&lt;p style=&quot;margin:0px;margin-top:4px;text-align:center;&quot;&gt;&lt;b&gt;变更执行小组&lt;/b&gt;&lt;/p&gt;&lt;hr size=&quot;1&quot;&gt;&lt;div style=&quot;text-align: center; height: 2px;&quot;&gt;紧急构建、测试计划和回滚计划&lt;br&gt;&lt;/div&gt;" style="verticalAlign=top;align=left;overflow=fill;fontSize=12;fontFamily=Helvetica;html=1;whiteSpace=wrap;fillColor=#dae8fc;strokeColor=#6c8ebf;" vertex="1" parent="1">
          <mxGeometry x="498" y="1038" width="140" height="60" as="geometry" />
        </mxCell>
        <mxCell id="pQg7jKlTXWdwniI-N2uA-111" style="edgeStyle=orthogonalEdgeStyle;rounded=0;orthogonalLoop=1;jettySize=auto;html=1;exitX=0.5;exitY=1;exitDx=0;exitDy=0;entryX=0.5;entryY=0;entryDx=0;entryDy=0;" edge="1" parent="1" source="pQg7jKlTXWdwniI-N2uA-81" target="pQg7jKlTXWdwniI-N2uA-100">
          <mxGeometry relative="1" as="geometry" />
        </mxCell>
        <mxCell id="pQg7jKlTXWdwniI-N2uA-81" value="&lt;p style=&quot;margin:0px;margin-top:4px;text-align:center;&quot;&gt;&lt;b&gt;变更管理员&lt;/b&gt;&lt;/p&gt;&lt;hr size=&quot;1&quot;&gt;&lt;div style=&quot;text-align: center; height: 2px;&quot;&gt;变更实施&lt;/div&gt;" style="verticalAlign=top;align=left;overflow=fill;fontSize=12;fontFamily=Helvetica;html=1;whiteSpace=wrap;fillColor=#dae8fc;strokeColor=#6c8ebf;" vertex="1" parent="1">
          <mxGeometry x="139" y="1038" width="140" height="60" as="geometry" />
        </mxCell>
        <mxCell id="pQg7jKlTXWdwniI-N2uA-110" style="edgeStyle=orthogonalEdgeStyle;rounded=0;orthogonalLoop=1;jettySize=auto;html=1;exitX=0;exitY=0.5;exitDx=0;exitDy=0;entryX=1;entryY=0.5;entryDx=0;entryDy=0;" edge="1" parent="1" source="pQg7jKlTXWdwniI-N2uA-99" target="pQg7jKlTXWdwniI-N2uA-81">
          <mxGeometry relative="1" as="geometry" />
        </mxCell>
        <mxCell id="pQg7jKlTXWdwniI-N2uA-99" value="&lt;p style=&quot;margin:0px;margin-top:4px;text-align:center;&quot;&gt;&lt;b&gt;测试人员&lt;/b&gt;&lt;/p&gt;&lt;hr size=&quot;1&quot;&gt;&lt;div style=&quot;text-align: center; height: 2px;&quot;&gt;紧急测试&lt;/div&gt;" style="verticalAlign=top;align=left;overflow=fill;fontSize=12;fontFamily=Helvetica;html=1;whiteSpace=wrap;fillColor=#dae8fc;strokeColor=#6c8ebf;" vertex="1" parent="1">
          <mxGeometry x="319" y="1038" width="140" height="60" as="geometry" />
        </mxCell>
        <mxCell id="pQg7jKlTXWdwniI-N2uA-112" style="edgeStyle=orthogonalEdgeStyle;rounded=0;orthogonalLoop=1;jettySize=auto;html=1;exitX=1;exitY=0.5;exitDx=0;exitDy=0;entryX=0;entryY=0.5;entryDx=0;entryDy=0;" edge="1" parent="1" source="pQg7jKlTXWdwniI-N2uA-100" target="pQg7jKlTXWdwniI-N2uA-101">
          <mxGeometry relative="1" as="geometry" />
        </mxCell>
        <mxCell id="pQg7jKlTXWdwniI-N2uA-100" value="&lt;p style=&quot;margin:0px;margin-top:4px;text-align:center;&quot;&gt;&lt;b&gt;变更管理员&lt;/b&gt;&lt;/p&gt;&lt;hr size=&quot;1&quot;&gt;&lt;div style=&quot;text-align: center; height: 2px;&quot;&gt;变更信息及时更新&lt;/div&gt;" style="verticalAlign=top;align=left;overflow=fill;fontSize=12;fontFamily=Helvetica;html=1;whiteSpace=wrap;fillColor=#dae8fc;strokeColor=#6c8ebf;" vertex="1" parent="1">
          <mxGeometry x="139" y="1168" width="140" height="60" as="geometry" />
        </mxCell>
        <mxCell id="pQg7jKlTXWdwniI-N2uA-113" style="edgeStyle=orthogonalEdgeStyle;rounded=0;orthogonalLoop=1;jettySize=auto;html=1;exitX=1;exitY=0.5;exitDx=0;exitDy=0;" edge="1" parent="1" source="pQg7jKlTXWdwniI-N2uA-101" target="pQg7jKlTXWdwniI-N2uA-102">
          <mxGeometry relative="1" as="geometry" />
        </mxCell>
        <mxCell id="pQg7jKlTXWdwniI-N2uA-101" value="&lt;p style=&quot;margin:0px;margin-top:4px;text-align:center;&quot;&gt;&lt;b&gt;变更管理员&lt;/b&gt;&lt;/p&gt;&lt;hr size=&quot;1&quot;&gt;&lt;div style=&quot;text-align: center; height: 2px;&quot;&gt;变更回顾&lt;/div&gt;" style="verticalAlign=top;align=left;overflow=fill;fontSize=12;fontFamily=Helvetica;html=1;whiteSpace=wrap;fillColor=#dae8fc;strokeColor=#6c8ebf;" vertex="1" parent="1">
          <mxGeometry x="319" y="1168" width="140" height="60" as="geometry" />
        </mxCell>
        <mxCell id="pQg7jKlTXWdwniI-N2uA-102" value="关闭" style="strokeWidth=2;html=1;shape=mxgraph.flowchart.terminator;whiteSpace=wrap;fillColor=#f8cecc;strokeColor=#b85450;" vertex="1" parent="1">
          <mxGeometry x="516" y="1179.5" width="77" height="37" as="geometry" />
        </mxCell>
      </root>
    </mxGraphModel>
  </diagram>
</mxfile>
